<svg viewBox="0 0 1024 1024" class="icon" version="1.1" xmlns="http://www.w3.org/2000/svg" fill="#000000"><g id="SVGRepo_bgCarrier" stroke-width="0"></g><g id="SVGRepo_tracerCarrier" stroke-linecap="round" stroke-linejoin="round"></g><g id="SVGRepo_iconCarrier"><path d="M512 0c-282.773333 0-512 229.226667-512 512s229.226667 512 512 512 512-229.226667 512-512-229.226667-512-512-512zM417.706667 736.853333l-5.12 3.413334c-6.826667 5.12-15.36 6.826667-23.893334 6.826666-6.826667 0-13.653333-1.706667-20.48-5.12-13.653333-6.826667-23.893333-20.48-23.893333-38.4v-371.2c0-17.92 10.24-31.573333 23.893333-38.4 13.653333-6.826667 30.72-5.12 44.373334 3.413334l347.306666 182.613333c13.653333 6.826667 20.48 20.48 20.48 35.413334 0 15.36-8.533333 28.373333-20.48 35.2l-346.666666 186.026666z" fill="#6AAD3D"></path></g></svg>
